# xmcd
#
# Track frame offsets:
# 150
# 28450
# 51614
# 68989
# 88515
# 108090
# 118583
# 129841
# 142033
# 159525
# 169827
# 183904
#
# Disc length: 2744 seconds
#
#
# Revision: 3
# Processed by: cddbd v1.5.2PL0 Copyright (c) Steve Scherf et al.
# Submitted via: FreeRIP 2.944 
#
DISCID=a90ab60c
DTITLE=Raiz Do Sana - Raiz Do Sana (Chronos)
DYEAR=1999
DGENRE=National Folk
TTITLE0=Pedro Mila
TTITLE1=Ave De Sol
TTITLE2=Verão
TTITLE3=Sem Caô
TTITLE4=Forró Do Jamil
TTITLE5=Peito Do Pombo
TTITLE6=Chamego Zen
TTITLE7=O Beijo
TTITLE8=A Imperatriz E O Poeta
TTITLE9=Catarina
TTITLE10=Pr'ocê
TTITLE11=O Toque
EXTD=Cadastrado por Júlio César(Juazeiro) e Aline Rocha(Petrolina), Fãs do Raiz do Sana.
EXTT0=Música de muito Agito
EXTT1=
EXTT2=
EXTT3=
EXTT4=
EXTT5=
EXTT6=
EXTT7=
EXTT8=
EXTT9=
EXTT10=
EXTT11=
PLAYORDER=
